<svg width="26" height="26" viewBox="0 0 26 26" fill="none" xmlns="http://www.w3.org/2000/svg">
<g clip-path="url(#clip0)">
<path d="M14.0184 25.9084H12.4387C11.1611 25.9084 10.1216 24.8781 10.1216 23.6119V23.0822C9.57837 22.9102 9.05062 22.6931 8.54362 22.433L8.16489 22.8084C7.24758 23.7187 5.7782 23.692 4.88755 22.8081L3.77105 21.7015C2.87882 20.8182 2.85316 19.3624 3.77134 18.4533L4.14979 18.0783C3.88741 17.5758 3.6684 17.0528 3.49481 16.5144H2.96043C1.68283 16.5144 0.643311 15.4842 0.643311 14.2179V12.6522C0.643311 11.3859 1.68283 10.3557 2.96048 10.3557H3.49486C3.66845 9.81726 3.88746 9.29426 4.14984 8.79177L3.7711 8.41644C2.85345 7.50794 2.87877 6.05197 3.77139 5.16826L4.88799 4.06164C5.78071 3.17564 7.24975 3.15352 8.16528 4.06193L8.54367 4.43696C9.05067 4.17697 9.57842 3.95985 10.1216 3.78781V3.25818C10.1216 1.99189 11.1611 0.96167 12.4388 0.96167H14.0185C15.2961 0.96167 16.3356 1.99189 16.3356 3.25818V3.78786C16.8788 3.95985 17.4065 4.17697 17.9135 4.43701L18.2923 4.06164C19.2096 3.15138 20.6789 3.17808 21.5696 4.06198L22.6861 5.1685C23.5783 6.05182 23.604 7.50764 22.6858 8.41669L22.3074 8.79177C22.5697 9.29426 22.7887 9.81721 22.9623 10.3557H23.4967C24.7744 10.3557 25.8139 11.3859 25.8139 12.6522V14.2179C25.8139 15.4842 24.7744 16.5144 23.4967 16.5144H22.9623C22.7887 17.0528 22.5697 17.5758 22.3074 18.0783L22.6861 18.4536C23.6037 19.3621 23.5784 20.8181 22.6858 21.7018L21.5692 22.8084C20.6765 23.6944 19.2074 23.7166 18.2919 22.8082L17.9135 22.4331C17.4065 22.6931 16.8788 22.9102 16.3356 23.0823V23.612C16.3356 24.8781 15.2961 25.9084 14.0184 25.9084ZM8.79017 20.8981C9.4945 21.3109 10.2526 21.6228 11.0433 21.8251C11.3689 21.9083 11.5964 22.1994 11.5964 22.5327V23.6119C11.5964 24.0722 11.9743 24.4466 12.4388 24.4466H14.0185C14.4829 24.4466 14.8608 24.0722 14.8608 23.6119V22.5327C14.8608 22.1994 15.0883 21.9083 15.414 21.8251C16.2047 21.6228 16.9627 21.3109 17.6671 20.8981C17.9569 20.7282 18.3258 20.7744 18.5639 21.0104L19.3352 21.7748C19.6677 22.1048 20.2017 22.0971 20.526 21.7752L21.6433 20.6679C21.9669 20.3475 21.9777 19.8182 21.6436 19.4875L20.872 18.7228C20.634 18.4869 20.5874 18.1211 20.7587 17.834C21.1753 17.1359 21.4899 16.3846 21.694 15.6009C21.778 15.2781 22.0717 15.0527 22.408 15.0527H23.4968C23.9612 15.0527 24.3391 14.6782 24.3391 14.2179V12.6522C24.3391 12.1919 23.9612 11.8174 23.4968 11.8174H22.408C22.0717 11.8174 21.778 11.5919 21.694 11.2692C21.4899 10.4855 21.1752 9.73419 20.7587 9.03616C20.5874 8.74899 20.634 8.38326 20.872 8.14734L21.6433 7.38291C21.9767 7.05285 21.968 6.52371 21.6436 6.20257L20.5264 5.09532C20.2026 4.77393 19.6685 4.76453 19.3355 5.09503L18.564 5.85975C18.3259 6.09572 17.9568 6.14191 17.6671 5.97206C16.9628 5.55922 16.2047 5.24734 15.414 5.04508C15.0884 4.96181 14.8608 4.67074 14.8608 4.33742V3.25818C14.8608 2.79788 14.4829 2.42339 14.0185 2.42339H12.4388C11.9744 2.42339 11.5965 2.79788 11.5965 3.25818V4.33732C11.5965 4.67064 11.369 4.96172 11.0433 5.04499C10.2526 5.24724 9.49455 5.55912 8.79022 5.97196C8.50036 6.14176 8.13141 6.09557 7.89337 5.85965L7.12213 5.09522C6.7896 4.76526 6.25556 4.77291 5.93124 5.09488L4.81395 6.20218C4.49038 6.52249 4.47956 7.05178 4.81366 7.38252L5.58525 8.14724C5.82329 8.38317 5.86989 8.74889 5.69856 9.03607C5.28202 9.73409 4.96739 10.4854 4.76332 11.2691C4.67925 11.5919 4.38556 11.8173 4.0493 11.8173H2.96048C2.49605 11.8174 2.11815 12.1919 2.11815 12.6522V14.2179C2.11815 14.6782 2.49605 15.0527 2.96048 15.0527H4.04925C4.38556 15.0527 4.6792 15.2781 4.76327 15.6008C4.96734 16.3846 5.28202 17.1359 5.69851 17.8339C5.86984 18.1211 5.82324 18.4868 5.5852 18.7227L4.81391 19.4872C4.48049 19.8172 4.4892 20.3464 4.81361 20.6675L5.9308 21.7748C6.25463 22.0961 6.78871 22.1056 7.12173 21.7751L7.89327 21.0103C8.06868 20.8365 8.4336 20.689 8.79017 20.8981Z" fill="white"/>
<path d="M13.2285 18.8628C10.2087 18.8628 7.75195 16.4279 7.75195 13.4349C7.75195 10.442 10.2087 8.00708 13.2285 8.00708C16.2483 8.00708 18.7051 10.442 18.7051 13.4349C18.7051 16.4279 16.2483 18.8628 13.2285 18.8628ZM13.2285 9.4688C11.0219 9.4688 9.22679 11.248 9.22679 13.4349C9.22679 15.6219 11.022 17.4011 13.2285 17.4011C15.4351 17.4011 17.2302 15.6219 17.2302 13.4349C17.2302 11.248 15.4351 9.4688 13.2285 9.4688Z" fill="white"/>
</g>
<defs>
<clipPath id="clip0">
<rect width="25.1706" height="24.9467" fill="white" transform="translate(0.643311 0.96167)"/>
</clipPath>
</defs>
</svg>
